<svg width="48" height="48" viewBox="0 0 48 48" fill="none" xmlns="http://www.w3.org/2000/svg">
<path d="M31.0479 12.0495C30.6683 12.2214 30.3293 12.4442 29.9822 12.6735C27.9805 13.9352 26.01 14.7627 23.6098 14.34C22.4393 13.985 21.3273 13.311 20.2839 12.6818C20.2142 12.6403 20.1446 12.5988 20.0728 12.556C19.8842 12.4425 19.697 12.3265 19.51 12.2103C19.0977 12.0226 18.8199 12.0069 18.3716 12.0495C15.5724 13.5074 14.1946 17.7333 13.3134 20.5239C12.9406 21.7344 12.6017 22.9524 12.3139 24.1859C12.2906 24.2844 12.2672 24.3829 12.2432 24.4843C12.1142 25.0642 12.0676 25.5901 12.0895 26.1841C12.1845 26.1715 12.1845 26.1715 12.2815 26.1586C13.1142 26.0488 13.9478 25.9471 14.7818 25.8476C14.9088 25.8324 15.0357 25.8171 15.1665 25.8014C17.4236 25.5379 19.6542 25.4574 21.9253 25.4672C22.3759 25.4691 22.8263 25.468 23.2769 25.466C26.2928 25.4551 29.2548 25.6523 32.2328 26.1561C32.3171 26.17 32.4014 26.1838 32.4883 26.1981C34.3148 26.4994 36.1417 26.8726 37.9234 27.379C37.9867 27.3919 38.05 27.4048 38.1152 27.4181C38.2274 27.3059 38.2274 27.3059 38.2467 26.9103C38.2399 26.4039 38.1474 25.9378 38.0302 25.4467C38.0096 25.3572 37.989 25.2677 37.9678 25.1755C37.9012 24.8874 37.833 24.5998 37.7646 24.3121C37.7179 24.1132 37.6712 23.9142 37.6245 23.7152C37.3037 22.3576 36.969 21.0072 36.5447 19.6777C36.5161 19.5865 36.4876 19.4953 36.4582 19.4013C35.6189 16.7479 34.3833 14.3596 32.394 12.386C32.3265 12.3181 32.259 12.2501 32.1894 12.1801C31.8066 11.9753 31.4636 11.9657 31.0479 12.0495Z" fill="black"/>
<path d="M12.608 27.1645C12.2203 27.1658 11.8326 27.165 11.4448 27.1637C9.2516 27.1576 7.08729 27.2329 4.92399 27.6214C4.81728 27.6405 4.71057 27.6595 4.60063 27.6791C3.40847 27.9024 2.2211 28.1286 1.32022 28.9886C1.16328 29.4507 1.17298 29.7677 1.36229 30.2086C1.99239 31.315 3.03433 31.9812 4.12471 32.5784C4.22512 32.6337 4.22512 32.6337 4.32755 32.6901C5.97303 33.5827 7.72826 34.2226 9.51635 34.7659C9.61045 34.7945 9.70455 34.8232 9.80151 34.8527C10.2193 34.9753 10.525 35.0463 10.9677 35.0463C11.1113 34.7591 11.1015 34.5402 11.1114 34.219C11.1156 34.0993 11.1198 33.9795 11.1241 33.8562C11.132 33.6026 11.1399 33.349 11.1478 33.0955C11.152 32.9757 11.1562 32.856 11.1605 32.7326C11.1639 32.6224 11.1673 32.5122 11.1708 32.3987C11.1752 32.1282 11.1752 32.1282 11.3042 31.9053C16.153 30.822 22.8126 33.4019 27.4308 34.6749C29.3366 35.1996 31.2315 35.7099 33.1792 36.0559C33.3195 36.081 33.4597 36.106 33.6042 36.1319C38.0547 36.9178 43.8577 37.8657 47.987 35.495C48.0168 34.9683 48.0168 34.9683 47.7486 34.6607C46.7733 33.9286 45.4065 33.5631 44.257 33.2094C44.1843 33.1869 44.1116 33.1644 44.0368 33.1412C33.8844 30.0071 23.3023 27.1286 12.608 27.1645Z" fill="black"/>
</svg>
